<?xml version="1.0" encoding="utf-8"?>
<!-- Generator: Adobe Illustrator 16.0.0, SVG Export Plug-In . SVG Version: 6.00 Build 0)  -->
<!DOCTYPE svg PUBLIC "-//W3C//DTD SVG 1.1//EN" "http://www.w3.org/Graphics/SVG/1.1/DTD/svg11.dtd">
<svg version="1.1" id="Layer_1" xmlns="http://www.w3.org/2000/svg" xmlns:xlink="http://www.w3.org/1999/xlink" x="0px" y="0px"
	 width="112.346px" height="35.693px" viewBox="4.021 12.152 112.346 35.693" enable-background="new 4.021 12.152 112.346 35.693"
	 xml:space="preserve">
<path d="M44.22,24.33c1.4-1.374,2.268-1.416,2.268-1.416c0.322-0.003,0.641,0.063,0.936,0.192c0.663,0.23,0.7,0.592,0.7,0.592
	v10.069c0.086,2.816-0.616,3.897-1.454,4.65c-0.254,0.23-0.57,0.383-0.909,0.438c-0.097,0.025-0.195-0.034-0.22-0.131
	c-0.003-0.014-0.005-0.027-0.005-0.041c0.014-0.194,0.056-0.386,0.124-0.568c0.423-1.088,0.388-2.955,0.388-2.955l0.04-10.84
	c0,0,0.033-0.2-0.136-0.118c-1.652,1.42-1.86,3.426-1.913,4.398c-0.027,1.457,0.592,2.21,0.592,2.21
	c0.097,0.09,0.148,0.217,0.142,0.349c0.012,0.13-0.083,0.245-0.214,0.258c-0.015,0.001-0.029,0.001-0.044,0
	c-0.622-0.06-1.614-0.76-1.966-1.61c-0.185-0.41-0.286-0.854-0.296-1.303c0.156-1.577,0.854-3.052,1.975-4.173L44.22,24.33z
	 M116.359,33.943c0,3.233-1.959,3.183-1.959,3.183c-1.866,0.065-2.342-1.903-2.459-3.905c-0.09-1.508,0-3.184,0-3.184
	s0-0.077-0.064,0c-0.625,1.13-1.048,2.85-1.256,4.178c-0.092,0.588-0.146,1.182-0.166,1.777c0.02,0.115-0.03,0.23-0.127,0.296
	c-1.014,0.465-1.664-0.195-1.895-0.933c-0.297-0.701-0.486-4.904-0.486-5.124c0-0.219-0.176-0.068-0.176-0.068
	c-1.403,2.33-1.416,5.784-1.416,6.477c0,0.693-1.185,0.48-1.185,0.48c-1.013-0.077-0.974-0.57-0.974-0.57l-0.047-0.835
	c-0.353,0.65-1.004,1.479-2.01,1.425c-1.522-0.099-1.815-1.674-1.841-1.94c0,0-0.758,1.96-2.84,1.94
	c-1.416-0.024-1.983-1.48-1.983-1.48s-0.57,1.529-1.961,1.48c-1.39-0.051-2.539-1.66-2.451-3.746c0.019-1.057,0.16-2.107,0.42-3.13
	c0,0,0.113-0.2-0.076-0.222c-0.19-0.022-1.393,0.02-1.393,0.02s-0.68,2.727-3.554,6.118l0.021,2.24c0,2.23-0.278,5.221-3.301,5.464
	c-2.611-0.178-2.464-2.19-2.464-2.19c-0.062-0.592,0.31-1.682,1.87-3.145l2.18-2.025l-0.062-0.937
	c-0.998,1.649-2.522,1.558-2.522,1.558s-1.186,0.24-2.17-1.513c-0.297,0.593-0.955,1.626-2.037,1.507
	c-1.522-0.17-1.824-1.685-1.849-1.955c0,0-0.76,1.979-2.854,1.955c-1.42-0.023-1.994-1.494-1.994-1.494
	c-0.157-0.325-0.277-0.668-0.357-1.02l-0.063,0.184c-0.322,0.826-1.119,2.262-2.344,2.28c-2.25,0-2.346-3.487-2.346-3.487
	c-0.656,1.56-1.928,3.529-4.297,3.518s-2.665-0.868-2.665-0.992c-0.016-0.24,0.067-0.476,0.231-0.652
	c0.272-0.394,0.5-0.557,0.7-0.557c0.197,0.055,0.378,0.156,0.53,0.296c0.3,0.286,0.687,0.464,1.099,0.503
	c0.746-0.027,0.91-0.625,0.963-1.234c0.052-0.61-0.381-1.262-0.978-1.807l-1.054-0.962l-1.978,3.259
	c-1.152,1.875-2.295,2.164-2.736,2.105c-0.6-0.083-1.185-0.705-1.22-2.526l0.136-5.09c0-0.163-0.148-0.083-0.148-0.083
	c-2.277,2.416-2.96,7.387-2.96,7.482c-0.081,0.145-0.242,0.227-0.406,0.205c-0.204,0,0.068,0-0.746-0.041
	c-0.814-0.039-0.758-1.566-0.758-1.566l0.053-7.403c0-0.246,0.243-0.352,1.016-0.148c0.773,0.204,0.746,0.444,0.746,0.444
	l-0.027,4.3c1.993-5.878,3.497-4.958,4.407-4.507c0.91,0.45,0.773,1.096,0.773,1.096l-0.136,4.37c-0.04,1.14,0.12,1.587,0.38,1.63
	c0.646,0.153,2.914-4.224,2.914-4.224c-1.004-1.086-0.456-2.414,0.326-2.988c0.352-0.244,0.759-0.393,1.185-0.435
	c0,0,1.017-0.053,0.99,0.803c0.027,0.936-1.016,2.073-1.016,2.073c2.02,1.44,2.96,2.2,3.117,3.314
	c0.046,0.294,0.025,0.594-0.059,0.88c1.436-1.25,1.547-2.647,1.547-2.647l0.023-4.672l-2.13-0.027c0,0-0.163,0-0.2-0.41
	c-0.029-0.394,0.115-0.781,0.395-1.06l2.031,0.027l0.08-2.443c0.068-0.49,0.381-0.557,1.273-0.326s0.888,0.435,0.888,0.435
	l-0.101,2.458l2.535,0.136c0.301,0.027,0.395,0.1,0.326,0.6c-0.006,0.258-0.145,0.495-0.367,0.625l-2.52,0.053l-0.175,5.42
	c0,0.84,0.04,2.825,0.825,2.8c1.101,0.053,1.748-2.404,1.748-2.404v-0.021c-0.015-0.454,0.002-0.907,0.05-1.358
	c0.206-1.976,1.1-4.289,3.11-4.289c0.797,0.018,1.52,0.473,1.879,1.185l0.033-0.444c0,0-0.043-0.536,0.805-0.403
	c0.85,0.133,1.141,0.468,1.121,0.737l-0.068,5.474c0.113,1.185,0.316,1.877,0.918,1.83c0.518-0.078,0.888-0.785,1.107-1.387
	c-0.752-6.254,2.666-7.013,2.666-7.013s1.516-0.1,2.205,1.152l0.021-0.42c0,0-0.067-0.554,0.733-0.4
	c0.236,0.036,0.467,0.096,0.69,0.178c0.354,0.133,0.468,0.222,0.468,0.554l-0.068,6.177c0,0,1.777-2.393,2.23-4.72
	c-0.357-0.268-0.575-0.684-0.592-1.131c0.044-0.666,0.38-1.463,1.359-1.463c0.98,0,1.061,0.868,0.916,1.46
	c0,0,0.822-0.1,1.537-0.296c0.713-0.196,1.67-0.296,1.737,0.82c0.026,0.245-0.021,0.492-0.133,0.711c0,0-0.565,2.47-0.478,3.468
	c0.09,0.998,0.355,2.505,1.138,2.328s1.048-1.285,1.048-1.285c-0.195-0.91-0.248-1.845-0.157-2.772
	c0.207-1.959,1.084-4.254,3.099-4.254c0.795,0.019,1.515,0.474,1.871,1.185l0.024-0.444c0,0-0.044-0.533,0.804-0.4
	c0.846,0.133,1.137,0.465,1.112,0.73l-0.067,5.43c0.112,1.186,0.313,1.867,0.912,1.818c0.598-0.048,1.063-0.992,1.364-1.777v-0.295
	l0.019-5.767c0.018-0.184,0.162-0.33,0.346-0.349l0.693,0.107c0.969,0.145,0.834,0.515,0.834,0.515v3.258
	c0.721-2.212,1.066-3.056,1.393-3.62c0.277-0.48,1.186-0.166,1.186-0.166s0.989,0.264,1,1.185c-0.031,1.504,0.184,3.953,0.184,3.953
	s0.037,0.05,0.056,0.033c0.011-0.016,0.015-0.034,0.015-0.053c0.28-1.667,0.768-3.293,1.451-4.839
	c0.358-0.672,1.395-0.195,1.395-0.195c1.244,0.426,1.076,1.164,1.076,1.164c-0.367,6.322,0.414,6.722,0.877,6.764
	c0.461,0.042,0.705-0.557,0.805-0.84s0.23-0.906,0.296-1.152c0.045-0.143,0.171-0.244,0.319-0.258
	c0.154,0.023,0.273,0.143,0.297,0.297L116.359,33.943z M74.391,29.098c-0.436,0.018-1.461,0.296-1.645,3.15
	c-0.184,2.854,0.572,3.586,1.208,3.67s1.776-0.939,1.83-3.97c0.053-3.03-1.396-2.85-1.396-2.85H74.391z M83.32,29.098
	c-0.444,0.018-1.559,0.406-1.811,3.163c-0.187,2.884,0.592,3.63,1.227,3.718c0.634,0.086,1.777-0.951,1.856-4.022
	c0.08-3.072-1.272-2.843-1.272-2.843V29.098z M84.8,37.943c-2.522,2.181-2.741,3.738-2.741,3.738s-0.25,1.275,0.965,1.34
	c1.459,0.147,1.705-1.627,1.744-3.179l0.047-1.883L84.8,37.943z M98.65,29.199c-0.436,0.018-1.461,0.296-1.645,3.15
	c-0.184,2.854,0.572,3.586,1.208,3.67s1.777-0.94,1.83-3.971c0.054-3.03-1.396-2.85-1.396-2.85H98.65z"/>
<g transform="matrix(.114556 0 0 .114556 .402435 43.321453)">
	
		<radialGradient id="SVGID_1_" cx="24744.9746" cy="-48677.5508" r="646.1104" gradientTransform="matrix(0.1154 -0.0194 -0.0118 -0.07 -3348.585 -2865.1543)" gradientUnits="userSpaceOnUse">
		<stop  offset="0" style="stop-color:#FED576"/>
		<stop  offset="0.263" style="stop-color:#F47133"/>
		<stop  offset="0.609" style="stop-color:#BC3081"/>
		<stop  offset="1" style="stop-color:#4C63D2"/>
	</radialGradient>
	<path fill="url(#SVGID_1_)" d="M187.795-195.815c-2.745,0-5.46,0.141-8.133,0.413c-2.677,0.277-5.315,0.682-7.907,1.215
		c-2.596,0.533-5.14,1.193-7.638,1.974l-7.327,2.69l-6.973,3.367l-6.581,4.007l-6.151,4.599l-5.673,5.153l-5.162,5.669l-4.603,6.146
		l-4.011,6.573l-3.372,6.969c-1.01,2.383-1.914,4.825-2.694,7.318s-1.441,5.042-1.973,7.63c-0.533,2.592-0.938,5.226-1.215,7.898
		s-0.413,5.388-0.413,8.128c0,2.741,0.141,5.456,0.413,8.133c0.273,2.643,0.678,5.285,1.215,7.894c0.533,2.6,1.193,5.132,1.973,7.63
		c0.78,2.498,1.679,4.936,2.694,7.323l3.372,6.965l4.011,6.573l4.603,6.146l5.162,5.669l5.673,5.157l6.151,4.595l6.581,4.007
		l6.973,3.367l7.327,2.694l7.638,1.969c2.613,0.537,5.251,0.938,7.907,1.211c2.702,0.281,5.417,0.418,8.133,0.418
		c2.745,0,5.46-0.145,8.133-0.418c2.655-0.273,5.294-0.673,7.907-1.211l7.638-1.969l7.327-2.694l6.973-3.367l6.581-4.007
		l6.151-4.595l5.677-5.157l5.157-5.669l4.608-6.146l4.011-6.573l3.367-6.965l2.694-7.323c0.78-2.498,1.441-5.038,1.973-7.63
		l1.219-7.902c0.273-2.668,0.414-5.383,0.414-8.124c0-2.745-0.141-5.456-0.414-8.128c-0.273-2.651-0.678-5.285-1.219-7.898
		c-0.533-2.6-1.193-5.136-1.973-7.63l-2.694-7.318l-3.367-6.969l-4.011-6.577l-4.608-6.142l-5.157-5.669l-5.677-5.157l-6.151-4.599
		l-6.581-4.002l-6.973-3.367l-7.327-2.694l-7.638-1.969l-7.907-1.215C193.226-195.679,190.511-195.815,187.795-195.815
		L187.795-195.815z M187.795-168.289c1.816,0,3.606,0.09,5.371,0.269l5.2,0.789l5.021,1.279l4.812,1.748l4.574,2.191l4.301,2.604
		l4.02,2.996l3.704,3.363l3.367,3.7l2.996,4.015l2.609,4.309l2.191,4.569c0.661,1.564,1.245,3.167,1.752,4.804
		c0.507,1.641,0.934,3.316,1.279,5.021s0.601,3.444,0.789,5.204l0.269,5.366c0,1.812-0.094,3.602-0.269,5.366
		c-0.179,1.765-0.443,3.495-0.789,5.2c-0.345,1.714-0.776,3.384-1.279,5.03l-1.752,4.808l-2.191,4.569l-2.609,4.296l-2.996,4.024
		l-3.367,3.7l-3.704,3.359l-4.02,3.001l-4.301,2.609l-4.574,2.182l-4.812,1.756l-5.021,1.279l-5.2,0.784
		c-1.786,0.17-3.576,0.264-5.371,0.264c-1.794,0-3.589-0.094-5.37-0.264l-5.2-0.784c-1.709-0.349-3.384-0.784-5.025-1.279
		l-4.812-1.756l-4.569-2.182l-4.301-2.609l-4.02-3.001l-3.708-3.359l-3.363-3.7l-3.001-4.024l-2.609-4.296l-2.191-4.569
		l-1.748-4.808l-1.283-5.03l-0.784-5.2c-0.179-1.782-0.269-3.572-0.269-5.366c0-1.79,0.09-3.58,0.269-5.366
		c0.175-1.76,0.439-3.499,0.784-5.204c0.345-1.692,0.771-3.367,1.283-5.017l1.748-4.808l2.191-4.569l2.609-4.305l3.001-4.02
		l3.363-3.7l3.708-3.363l4.02-2.996l4.301-2.604l4.574-2.191c1.573-0.661,3.18-1.245,4.808-1.748l5.025-1.279
		c1.709-0.345,3.444-0.609,5.2-0.789C184.211-168.199,186.001-168.289,187.795-168.289L187.795-168.289z"/>
	
		<radialGradient id="SVGID_2_" cx="24745.2129" cy="-48678.0313" r="646.1227" gradientTransform="matrix(0.1154 -0.0194 -0.0118 -0.07 -3348.585 -2865.1543)" gradientUnits="userSpaceOnUse">
		<stop  offset="0" style="stop-color:#FED576"/>
		<stop  offset="0.263" style="stop-color:#F47133"/>
		<stop  offset="0.609" style="stop-color:#BC3081"/>
		<stop  offset="1" style="stop-color:#4C63D2"/>
	</radialGradient>
	<path fill="url(#SVGID_2_)" d="M270.861-218.5c-0.635,0-1.266,0.03-1.897,0.094c-0.631,0.064-1.262,0.162-1.88,0.29
		c-0.622,0.124-1.236,0.281-1.841,0.469c-0.605,0.192-1.202,0.409-1.786,0.656c-0.584,0.251-1.155,0.529-1.709,0.835
		c-0.558,0.307-1.1,0.639-1.62,0.997c-0.524,0.362-1.031,0.746-1.513,1.159c-0.486,0.409-0.95,0.844-1.394,1.304
		c-0.439,0.456-0.857,0.933-1.253,1.436c-0.392,0.499-0.763,1.019-1.104,1.556c-0.341,0.537-0.656,1.087-0.946,1.658
		c-0.285,0.567-0.545,1.151-0.776,1.743c-0.23,0.597-0.43,1.202-0.601,1.816c-0.166,0.614-0.307,1.236-0.413,1.867
		c-0.107,0.627-0.183,1.262-0.23,1.897c-0.03,0.452-0.047,0.904-0.047,1.355c0,0.639,0.03,1.275,0.094,1.91
		c0.064,0.635,0.158,1.266,0.286,1.893c0.124,0.627,0.281,1.245,0.469,1.854s0.405,1.206,0.652,1.794
		c0.247,0.588,0.524,1.164,0.827,1.726c0.303,0.558,0.635,1.104,0.993,1.628c0.358,0.529,0.742,1.036,1.151,1.522
		c0.409,0.49,0.84,0.955,1.296,1.402c0.452,0.443,0.929,0.865,1.428,1.262c0.494,0.396,1.01,0.767,1.543,1.112
		c0.537,0.345,1.087,0.661,1.65,0.951c0.567,0.29,1.146,0.55,1.735,0.784c0.592,0.23,1.193,0.43,1.803,0.601
		c0.609,0.171,1.232,0.311,1.854,0.418c0.627,0.111,1.253,0.188,1.888,0.23c0.448,0.034,0.895,0.051,1.343,0.051
		c0.635,0,1.266-0.034,1.897-0.098c0.631-0.064,1.257-0.158,1.88-0.286c0.622-0.124,1.236-0.286,1.841-0.473
		c0.605-0.188,1.202-0.405,1.786-0.656c0.584-0.247,1.155-0.524,1.709-0.831c0.558-0.307,1.1-0.639,1.62-0.997
		c0.524-0.362,1.031-0.746,1.513-1.159c0.486-0.409,0.95-0.844,1.389-1.304c0.443-0.456,0.861-0.938,1.258-1.436
		c0.392-0.499,0.763-1.019,1.104-1.556c0.341-0.537,0.656-1.091,0.946-1.658c0.286-0.571,0.546-1.151,0.776-1.748
		c0.23-0.592,0.43-1.198,0.597-1.816c0.17-0.614,0.311-1.236,0.418-1.863c0.106-0.631,0.183-1.266,0.23-1.901
		c0.03-0.448,0.047-0.899,0.047-1.351c0-0.639-0.03-1.279-0.094-1.91c-0.064-0.635-0.158-1.266-0.286-1.892
		c-0.124-0.627-0.281-1.245-0.469-1.854c-0.188-0.609-0.405-1.211-0.652-1.794c-0.247-0.588-0.524-1.164-0.827-1.726
		c-0.302-0.558-0.635-1.104-0.993-1.628c-0.358-0.529-0.741-1.036-1.151-1.526c-0.409-0.486-0.84-0.955-1.296-1.398
		c-0.452-0.443-0.929-0.865-1.428-1.262c-0.494-0.396-1.01-0.767-1.543-1.113c-0.537-0.345-1.087-0.665-1.649-0.95
		c-0.567-0.29-1.147-0.554-1.735-0.784c-0.593-0.23-1.193-0.431-1.803-0.601c-0.61-0.171-1.232-0.311-1.854-0.422
		c-0.627-0.107-1.253-0.183-1.888-0.23C271.756-218.483,271.308-218.5,270.861-218.5L270.861-218.5z"/>
	
		<radialGradient id="SVGID_3_" cx="24744.873" cy="-48677.7734" r="646.1674" gradientTransform="matrix(0.1154 -0.0194 -0.0118 -0.07 -3348.585 -2865.1543)" gradientUnits="userSpaceOnUse">
		<stop  offset="0" style="stop-color:#FED576"/>
		<stop  offset="0.263" style="stop-color:#F47133"/>
		<stop  offset="0.609" style="stop-color:#BC3081"/>
		<stop  offset="1" style="stop-color:#4C63D2"/>
	</radialGradient>
	<path fill="url(#SVGID_3_)" d="M172.66-272.082c-8.683-0.013-16.432,0.026-23.392,0.124l-18.661,0.499
		c-5.528,0.239-10.413,0.554-14.795,0.959c-2.191,0.2-4.262,0.426-6.219,0.673c-1.867,0.239-3.725,0.511-5.58,0.823
		c-1.765,0.303-3.44,0.626-5.047,0.976c-1.607,0.354-3.141,0.733-4.62,1.142c-1.445,0.396-2.881,0.835-4.305,1.313
		c-1.394,0.473-2.753,0.968-4.096,1.5c-2.685,1.066-5.307,2.259-8.005,3.597c-2.076,1.031-3.994,2.072-5.818,3.176
		c-1.82,1.104-3.546,2.272-5.234,3.542c-1.743,1.313-3.418,2.711-5.03,4.181c-1.679,1.53-3.397,3.218-5.183,5.098
		c-2.242,2.353-4.194,4.548-5.925,6.701c-0.865,1.078-1.675,2.14-2.438,3.209c-0.755,1.057-1.475,2.135-2.161,3.235
		c-0.682,1.087-1.326,2.199-1.939,3.342c-0.626,1.159-1.219,2.34-1.773,3.538c-1.138,2.442-2.199,5.077-3.261,8.013
		c-0.784,2.174-1.492,4.373-2.11,6.598c-0.635,2.272-1.198,4.655-1.701,7.225c-0.499,2.575-0.938,5.341-1.322,8.401
		c-0.418,3.354-0.75,6.717-0.997,10.089c-0.277,3.704-0.511,7.783-0.699,12.323l-0.452,15.093l-0.243,18.396l-0.068,22.237
		l0.205,32.339l0.639,24.5l0.494,9.565l0.614,7.928c0.2,2.148,0.448,4.279,0.742,6.402c0.268,1.884,0.558,3.538,0.874,4.97
		c0.631,2.907,1.381,5.788,2.242,8.636c0.827,2.728,1.769,5.413,2.83,8.056c1.044,2.592,2.182,5.098,3.423,7.502
		c1.24,2.404,2.579,4.706,4.019,6.922c1.441,2.225,2.979,4.348,4.625,6.394c1.641,2.029,3.389,3.981,5.234,5.839
		c1.846,1.858,3.794,3.632,5.848,5.311c2.076,1.705,4.237,3.299,6.47,4.791c2.072,1.381,4.122,2.66,6.189,3.819
		c2.067,1.168,4.147,2.225,6.291,3.188c2.144,0.955,4.339,1.824,6.632,2.6s4.684,1.475,7.208,2.089c2.528,0.614,5.2,1.142,8.03,1.62
		c2.83,0.469,5.856,0.87,9.087,1.219c3.235,0.349,6.679,0.639,10.387,0.878c3.704,0.239,7.664,0.426,11.917,0.58
		c6.573,0.239,16.525,0.375,28,0.426l37.143-0.068l35.173-0.494l13.375-0.375l8.712-0.443c1.871-0.153,3.7-0.341,5.469-0.546
		c1.764-0.213,3.508-0.46,5.204-0.733c1.696-0.273,3.354-0.58,4.983-0.921c1.607-0.333,3.209-0.699,4.804-1.117
		c1.577-0.401,3.128-0.861,4.667-1.338c1.539-0.486,3.06-1.006,4.573-1.569c1.522-0.563,3.031-1.159,4.522-1.799
		c1.5-0.639,3.001-1.321,4.51-2.054c2.31-1.108,4.173-2.037,5.81-2.95c1.539-0.835,3.018-1.782,4.433-2.822
		c1.398-1.031,2.783-2.191,4.386-3.674c1.598-1.466,3.41-3.248,5.656-5.49c1.974-1.978,3.636-3.683,5.072-5.251
		c1.437-1.552,2.643-2.958,3.704-4.314c1.01-1.279,1.952-2.617,2.822-3.998c0.844-1.355,1.624-2.754,2.421-4.305
		c1.193-2.344,2.259-4.51,3.214-6.598c0.925-2.012,1.769-4.066,2.532-6.155c0.755-2.063,1.402-4.16,1.952-6.291
		c0.563-2.191,1.049-4.501,1.471-7.041c0.418-2.532,0.776-5.285,1.083-8.371s0.571-6.496,0.801-10.315l0.61-12.855l0.524-15.975
		l0.371-17.8l0.145-18.609l-0.333-36.554l-0.448-16.372l-0.61-14.057l-0.759-10.963c-0.277-3.048-0.575-5.452-0.891-7.076
		c-0.35-1.794-0.742-3.58-1.172-5.354c-0.422-1.731-0.882-3.448-1.385-5.153c-0.49-1.662-1.023-3.312-1.598-4.949
		c-0.567-1.615-1.172-3.197-1.799-4.744c-0.631-1.547-1.313-3.056-2.025-4.535c-0.708-1.479-1.453-2.924-2.233-4.335
		c-0.78-1.407-1.594-2.783-2.447-4.126c-0.852-1.338-1.739-2.647-2.66-3.917c-0.916-1.27-1.875-2.506-2.868-3.717
		c-0.993-1.202-2.021-2.37-3.082-3.508c-1.066-1.134-2.161-2.238-3.295-3.303c-1.134-1.066-2.302-2.097-3.504-3.094
		c-1.21-1.002-2.447-1.965-3.717-2.89c-1.283-0.933-2.592-1.829-3.926-2.681c-1.355-0.865-2.737-1.692-4.139-2.476
		c-1.428-0.797-2.881-1.552-4.352-2.268c-2.442-1.185-4.701-2.238-6.918-3.171c-2.178-0.929-4.399-1.752-6.658-2.468
		c-2.268-0.716-4.633-1.33-7.233-1.858c-2.6-0.529-5.435-0.972-8.644-1.347c-3.205-0.371-6.79-0.678-10.89-0.929
		c-4.096-0.251-8.704-0.448-13.968-0.609l-17.885-0.401l-22.637-0.264l-28.988-0.179L172.66-272.082z M187.715-244.577l41.801,0.239
		l15.771,0.303c4.343,0.124,7.655,0.264,9.599,0.43c2.532,0.213,4.94,0.477,7.246,0.797c2.212,0.307,4.412,0.686,6.598,1.142
		c2.102,0.439,4.105,0.938,6.023,1.505c1.914,0.563,3.747,1.193,5.503,1.892c1.756,0.699,3.44,1.466,5.055,2.31
		c1.603,0.835,3.163,1.756,4.672,2.754c1.5,0.997,2.945,2.067,4.347,3.222c1.407,1.155,2.766,2.395,4.096,3.717
		c1.402,1.398,2.694,2.822,3.887,4.288c1.189,1.462,2.289,2.988,3.295,4.582c1.014,1.611,1.931,3.286,2.741,5.013
		c0.827,1.76,1.573,3.619,2.242,5.596c0.665,1.978,1.262,4.079,1.79,6.325c0.55,2.378,1.014,4.778,1.385,7.195
		c0.401,2.557,0.742,5.29,1.031,8.214c0.29,2.92,0.529,6.04,0.729,9.373c0.158,2.677,0.294,6.206,0.413,10.375l0.29,14.215
		l0.226,34.819l-0.256,34.79l-0.307,14.177l-0.418,10.306c-0.294,4.825-0.601,8.883-0.972,12.421
		c-0.183,1.756-0.384,3.393-0.605,4.927c-0.209,1.449-0.456,2.89-0.737,4.331c-0.26,1.304-0.563,2.609-0.908,3.896
		c-0.328,1.236-0.699,2.447-1.108,3.657c-0.413,1.21-0.861,2.412-1.347,3.597c-0.516,1.245-1.057,2.489-1.628,3.717
		c-0.507,1.091-1.04,2.157-1.603,3.197c-0.558,1.023-1.151,2.037-1.777,3.018c-0.618,0.98-1.27,1.927-1.948,2.847
		c-0.678,0.912-1.385,1.807-2.127,2.668c-0.738,0.87-1.509,1.696-2.306,2.506c-0.801,0.801-1.632,1.577-2.489,2.327
		c-0.861,0.75-1.752,1.475-2.677,2.165c-0.921,0.691-1.875,1.355-2.865,2.003c-0.989,0.631-2.003,1.245-3.056,1.824
		c-1.053,0.588-2.135,1.142-3.248,1.671c-1.138,0.546-2.285,1.048-3.453,1.517c-1.202,0.486-2.421,0.938-3.648,1.355
		c-2.502,0.853-5.136,1.603-7.911,2.242c-2.894,0.673-5.814,1.219-8.755,1.637c-1.13,0.171-3.725,0.324-7.446,0.469l-14.177,0.401
		l-40.19,0.511l-42.065,0.068l-16.521-0.171l-10.724-0.341l-7.911-0.546c-2.455-0.213-4.74-0.443-6.879-0.699
		c-2.14-0.264-4.135-0.563-6.01-0.887c-1.777-0.307-3.542-0.673-5.294-1.1c-1.598-0.384-3.18-0.844-4.74-1.355
		c-1.504-0.503-2.945-1.057-4.343-1.654c-1.402-0.605-2.762-1.27-4.109-1.995s-2.681-1.509-4.028-2.37
		c-1.014-0.648-1.999-1.296-2.945-1.995c-0.946-0.682-1.858-1.381-2.741-2.097c-0.878-0.733-1.726-1.475-2.54-2.242
		c-0.81-0.767-1.59-1.56-2.344-2.378c-0.75-0.818-1.466-1.662-2.153-2.532c-0.69-0.878-1.351-1.782-1.973-2.702
		c-0.635-0.938-1.232-1.892-1.799-2.881s-1.113-2.012-1.624-3.069c-0.524-1.074-1.014-2.165-1.466-3.274
		c-0.46-1.125-0.895-2.293-1.309-3.495c-0.818-2.404-1.539-4.961-2.165-7.698c-0.627-2.728-1.159-5.626-1.611-8.721
		c-0.452-3.086-0.814-6.359-1.104-9.846c-0.218-2.566-0.384-6.556-0.516-11.602l-0.273-17.919l0.102-45.697l0.784-43.664
		l0.601-15.387l0.341-5.085c0.119-1.355,0.239-2.361,0.367-2.967c0.409-1.986,0.827-3.836,1.253-5.567
		c0.401-1.633,0.848-3.256,1.338-4.863c0.465-1.517,0.955-2.941,1.483-4.288c0.503-1.304,1.07-2.587,1.688-3.84
		c0.605-1.219,1.257-2.387,1.965-3.525c0.708-1.138,1.47-2.238,2.302-3.337c0.831-1.095,1.73-2.178,2.702-3.278
		c0.976-1.095,2.029-2.208,3.171-3.35c1.33-1.338,2.715-2.621,4.156-3.845c1.355-1.155,2.771-2.238,4.237-3.248
		c1.445-1.002,2.924-1.888,4.467-2.707c1.539-0.818,3.141-1.56,4.825-2.225c1.688-0.665,3.457-1.257,5.332-1.799
		c1.969-0.554,3.96-1.023,5.968-1.411c2.114-0.418,4.356-0.776,6.751-1.091s4.944-0.588,7.668-0.823
		c1.901-0.166,5.175-0.311,9.484-0.435l15.69-0.311l41.737-0.252L187.715-244.577z"/>
</g>
</svg>
